<?xml version="1.0" encoding="UTF-8"?>
<svg width="25px" height="20px" viewBox="0 0 25 20" version="1.1" xmlns="http://www.w3.org/2000/svg" xmlns:xlink="http://www.w3.org/1999/xlink">
    <!-- Generator: Sketch 52.5 (67469) - http://www.bohemiancoding.com/sketch -->
    <title>Shape</title>
    <desc>Created with Sketch.</desc>
    <g id="Page-1" stroke="none" stroke-width="1" fill="none" fill-rule="evenodd">
        <g id="公共自行车决策分析" transform="translate(-1001.000000, -120.000000)" fill="#FF3060" fill-rule="nonzero">
            <g id="图例" transform="translate(730.000000, 109.000000)">
                <g id="Group-8" transform="translate(10.000000, 10.000000)">
                    <g id="餐厅" transform="translate(261.000000, 0.000000)">
                        <g id="餐厨垃圾" transform="translate(0.000000, 1.000000)">
                            <path d="M19.3943848,2.14239566 C18.8185583,2.14239566 18.2671523,2.24340813 17.7515447,2.41906992 C16.2561143,0.875853077 14.1979689,0.00628190962 12.049058,0.00975609756 C9.8456542,0.00975609756 7.85593062,0.901662873 6.42066558,2.33720542 C5.97032906,2.20845035 5.50428761,2.142887 5.03590678,2.14239566 C2.26139404,2.14239566 0.0119241192,4.36661247 0.0119241192,7.11254201 C0.0119241192,9.84875881 2.24918374,12.067703 5.01398374,12.0799133 L5.01398374,18.5524813 C5.01375599,18.9319568 5.16489563,19.2958499 5.43390175,19.5635016 C5.70290788,19.8311533 6.06755917,19.9804543 6.44702873,19.9783111 L17.968555,19.9783111 C18.7633344,19.9783111 19.4016,19.338658 19.4016,18.5524813 L19.4016,12.0774157 C22.1736152,12.0726981 24.41809,9.85097886 24.41809,7.11004444 C24.41809,4.36661247 22.1686201,2.14267317 19.3943848,2.14267317 L19.3943848,2.14239566 Z M8.62656694,14.9340705 C8.62656694,16.511419 8.30632412,17.7882276 7.90893442,17.7882276 C7.51154472,17.7882276 7.1913019,16.511419 7.1913019,14.9340705 L7.1913019,13.5057431 C7.1913019,11.9286721 7.51154472,10.6518634 7.90893442,10.6518634 C8.30632412,10.6518634 8.62656694,11.9311696 8.62656694,13.5057431 L8.62656694,14.9340705 Z M12.9351371,13.5057431 C12.9351371,15.0830916 12.6148943,16.3599003 12.2175046,16.3599003 C11.8201149,16.3599003 11.4995946,15.0833691 11.4995946,13.5057431 L11.4995946,12.0776932 C11.4995946,10.5003447 11.8201149,9.22353604 12.2175046,9.22353604 C12.6148943,9.22353604 12.9351371,10.5003447 12.9351371,12.0776932 L12.9351371,13.5057431 Z M17.2437073,14.9340705 C17.2437073,16.511419 16.923187,17.7882276 16.5257973,17.7882276 C16.1286851,17.7882276 15.8081648,16.511419 15.8081648,14.9340705 L15.8081648,13.5057431 C15.8081648,11.9286721 16.1286851,10.6518634 16.5257973,10.6518634 C16.923187,10.6518634 17.2437073,11.9311696 17.2437073,13.5057431 L17.2437073,14.9340705 Z" id="Shape"></path>
                        </g>
                    </g>
                </g>
            </g>
        </g>
    </g>
</svg>