<?xml version="1.0" encoding="UTF-8"?>
<svg width="14px" height="20px" viewBox="0 0 14 20" version="1.1" xmlns="http://www.w3.org/2000/svg" xmlns:xlink="http://www.w3.org/1999/xlink">
    <!-- Generator: Sketch 52.5 (67469) - http://www.bohemiancoding.com/sketch -->
    <title>Shape</title>
    <desc>Created with Sketch.</desc>
    <g id="Page-1" stroke="none" stroke-width="1" fill="none" fill-rule="evenodd">
        <g id="公共自行车决策分析" transform="translate(-1170.000000, -120.000000)" fill="#FF9859" fill-rule="nonzero">
            <g id="图例" transform="translate(730.000000, 109.000000)">
                <g id="Group-8" transform="translate(10.000000, 10.000000)">
                    <g id="试点小区" transform="translate(430.000000, 0.000000)">
                        <path d="M13.2597783,5.29977273 L8.95670776,5.29977273 L8.95670776,1 L0,1 L0,21 L13.2597783,21 L13.2597783,5.29977273 Z M6.67965871,15.7231818 L2.27632248,15.7231818 L2.27632248,12.8565909 L6.67929543,12.8565909 L6.67929543,15.7231818 L6.67965871,15.7231818 Z M6.67965871,11.4234091 L2.27632248,11.4234091 L2.27632248,8.55681818 L6.67929543,8.55681818 L6.67929543,11.4234091 L6.67965871,11.4234091 Z M6.67965871,7.12363636 L2.27632248,7.12363636 L2.27632248,4.25704545 L6.67929543,4.25704545 L6.67929543,7.12363636 L6.67965871,7.12363636 Z M12.0088181,15.7222727 L9.80733162,15.7222727 L9.80733162,12.8561364 L12.0088181,12.8561364 L12.0088181,15.7222727 Z M12.0088181,11.4234091 L9.80733162,11.4234091 L9.80733162,8.55681818 L12.0088181,8.55681818 L12.0088181,11.4234091 Z" id="Shape"></path>
                    </g>
                </g>
            </g>
        </g>
    </g>
</svg>