<?xml version="1.0" encoding="UTF-8"?>
<svg width="19px" height="20px" viewBox="0 0 19 20" version="1.1" xmlns="http://www.w3.org/2000/svg" xmlns:xlink="http://www.w3.org/1999/xlink">
    <!-- Generator: Sketch 52.5 (67469) - http://www.bohemiancoding.com/sketch -->
    <title>Path</title>
    <desc>Created with Sketch.</desc>
    <g id="Page-1" stroke="none" stroke-width="1" fill="none" fill-rule="evenodd">
        <g id="地图-图例+放大缩小" transform="translate(-726.000000, -212.000000)" fill="#FFFFFF">
            <g id="放大缩小" transform="translate(720.000000, 207.000000)">
                <g id="Group-12-Copy-4">
                    <g id="加" transform="translate(6.000000, 5.000000)">
                        <path d="M10.680493,8.56761816 L10.680493,1.86657775 C10.680493,1.07548852 10.0577158,0.434184782 9.28948025,0.434184782 C8.52124471,0.434184782 7.89846752,1.07548852 7.89846752,1.86657775 L7.89846752,8.56761816 L1.39101273,8.56761816 C0.622777121,8.56761819 -6.15416042e-08,9.20892189 -6.15416042e-08,10.0000111 C-2.79609618e-08,10.7911004 0.622777121,11.4324041 1.39101267,11.4324041 L7.89846746,11.4324041 L7.89846746,18.1334445 C7.89846758,18.924534 8.52124465,19.5658377 9.28948019,19.5658377 C10.0577157,19.5658376 10.6804929,18.924534 10.6804929,18.1334447 L10.6804929,11.4324043 L17.1879477,11.4324043 C17.9561832,11.4324044 18.5789604,10.7911006 18.5789604,10.0000113 C18.5789604,9.20892211 17.9561832,8.56761838 17.1879477,8.56761838 L10.680493,8.56761816 Z" id="Path"></path>
                    </g>
                </g>
            </g>
        </g>
    </g>
</svg>