<?xml version="1.0" encoding="UTF-8"?>
<svg width="30px" height="30px" viewBox="0 0 30 30" version="1.1" xmlns="http://www.w3.org/2000/svg" xmlns:xlink="http://www.w3.org/1999/xlink">
    <!-- Generator: Sketch 52.5 (67469) - http://www.bohemiancoding.com/sketch -->
    <title>Group 4</title>
    <desc>Created with Sketch.</desc>
    <g id="Page-1" stroke="none" stroke-width="1" fill="none" fill-rule="evenodd">
        <g id="地图-全屏缩小" transform="translate(-1379.000000, -845.000000)" fill-rule="nonzero">
            <g id="地图" transform="translate(751.000000, 829.000000)">
                <g id="Group-4" transform="translate(643.000000, 31.000000) rotate(135.000000) translate(-643.000000, -31.000000) translate(628.000000, 16.000000)">
                    <circle id="Oval" fill="#359FFF" cx="15" cy="15" r="15"></circle>
                    <path d="M13.2375,11.73336 C12.8884385,11.4222133 12.3615615,11.4222133 12.0125,11.73336 L6.5,16.6333996 L0.9875,11.73336 C0.638438503,11.4222133 0.111561497,11.4222133 -0.2375,11.73336 C-0.5875,12.0443852 -0.5875,12.5111617 -0.2375,12.822187 L5.8875,18.26664 C6.2365615,18.5777867 6.7634385,18.5777867 7.1125,18.26664 L13.2375,12.822187 C13.4125,12.6665948 13.5,12.4333656 13.5,12.2777735 C13.5,12.0443852 13.4125,11.8887931 13.2375,11.73336 Z" id="Shape" fill-opacity="0.599467844" fill="#FFFFFF" transform="translate(6.500000, 15.000000) rotate(90.000000) translate(-6.500000, -15.000000) "></path>
                    <path d="M30.2375,11.73336 C29.8884385,11.4222133 29.3615615,11.4222133 29.0125,11.73336 L23.5,16.6333996 L17.9875,11.73336 C17.6384385,11.4222133 17.1115615,11.4222133 16.7625,11.73336 C16.4125,12.0443852 16.4125,12.5111617 16.7625,12.822187 L22.8875,18.26664 C23.2365615,18.5777867 23.7634385,18.5777867 24.1125,18.26664 L30.2375,12.822187 C30.4125,12.6665948 30.5,12.4333656 30.5,12.2777735 C30.5,12.0443852 30.4125,11.8887931 30.2375,11.73336 Z" id="Shape-Copy" fill-opacity="0.599467844" fill="#FFFFFF" transform="translate(23.500000, 15.000000) scale(-1, 1) rotate(90.000000) translate(-23.500000, -15.000000) "></path>
                </g>
            </g>
        </g>
    </g>
</svg>