<?xml version="1.0" encoding="UTF-8"?>
<svg width="80px" height="88px" viewBox="0 0 80 88" version="1.1" xmlns="http://www.w3.org/2000/svg" xmlns:xlink="http://www.w3.org/1999/xlink">
    <!-- Generator: Sketch 52.5 (67469) - http://www.bohemiancoding.com/sketch -->
    <title>Group</title>
    <desc>Created with Sketch.</desc>
    <g id="Page-1" stroke="none" stroke-width="1" fill="none" fill-rule="evenodd">
        <g id="Artboard" transform="translate(-10.000000, -6.000000)">
            <g id="Group">
                <rect id="Rectangle" x="0" y="0" width="100" height="100"></rect>
                <path d="M58.3572688,83.4797783 C60.7631631,85.8856726 60.7631631,89.7886346 58.3572688,92.1945289 C55.9513745,94.6016088 52.0495982,94.6016088 49.6425183,92.1945289 L11.8035401,54.3567018 C10.60118,53.1531676 10,51.5771306 10,49.9999194 C10,48.4227082 10.6023588,46.8454971 11.8035401,45.643137 L49.6425183,7.80530998 C52.0495982,5.39823001 55.9513745,5.39823001 58.3572688,7.80530998 C60.7631631,10.2112043 60.7631631,14.1129805 58.3572688,16.5200605 L24.8774904,49.9998388 L58.3572688,83.4796172 L58.3572688,83.4797783 Z M54.1274842,50 L87.6072625,16.5202217 C90.0131568,14.1131417 90.0131568,10.2113654 87.6072625,7.80547115 C85.2013682,5.39839117 81.299592,5.39839117 78.892512,7.80547115 L41.0535338,45.6432982 C39.8511738,46.8468324 39.2499937,48.4228694 39.2499937,50.0000806 C39.2499937,51.5772918 39.8523526,53.1545029 41.0535338,54.356863 L78.892512,92.19469 C81.299592,94.60177 85.2013682,94.60177 87.6072625,92.19469 C90.0131568,89.7887957 90.0131568,85.8858338 87.6072625,83.4799395 L54.1274842,50.0001612 L54.1274842,50 Z" id="Shape" fill="#FFFFFF" fill-rule="nonzero"></path>
            </g>
        </g>
    </g>
</svg>