<?xml version="1.0" encoding="UTF-8"?>
<svg width="9px" height="9px" viewBox="0 0 9 9" version="1.1" xmlns="http://www.w3.org/2000/svg" xmlns:xlink="http://www.w3.org/1999/xlink">
    <!-- Generator: Sketch 52.5 (67469) - http://www.bohemiancoding.com/sketch -->
    <title>Path</title>
    <desc>Created with Sketch.</desc>
    <g id="Page-1" stroke="none" stroke-width="1" fill="none" fill-rule="evenodd" opacity="0.600000024">
        <g id="弹窗" transform="translate(-277.000000, -109.000000)" fill="#46EBE3" fill-rule="nonzero">
            <g id="Group-3" transform="translate(32.000000, 92.000000)">
                <g id="close" transform="translate(240.000000, 12.000000)">
                    <path d="M13.3195572,5.63553506 C13.197214,5.51180812 13.0274539,5.43520295 12.839797,5.43520295 C12.6548339,5.43520295 12.4872694,5.509631 12.3654059,5.6301845 L9.44376384,8.5201845 L6.56656827,5.63350554 C6.44440959,5.51101476 6.2754797,5.4352214 6.08883764,5.4352214 C5.71623616,5.4352214 5.41418819,5.73726937 5.41418819,6.10987085 C5.41418819,6.29583026 5.48942804,6.46422509 5.61112546,6.58625461 L8.48424354,9.46907749 L5.58761993,12.3336162 C5.46392989,12.4559779 5.38732472,12.625738 5.38732472,12.8133764 C5.38732472,13.1860148 5.68940959,13.4881181 6.06206642,13.4881181 C6.24706642,13.4881181 6.41468635,13.4136531 6.53656827,13.2930812 L9.43719557,10.4238561 L12.3609225,13.3579889 C12.4821033,13.4750554 12.6473432,13.5471956 12.829428,13.5471956 C13.2020111,13.5471956 13.5040406,13.2451661 13.5040406,12.872583 C13.5040406,12.6915129 13.4326937,12.5270849 13.3165867,12.4059225 L10.396476,9.47542435 L13.3141144,6.58964945 C13.4378413,6.46730627 13.5144465,6.29754613 13.5144465,6.1098893 C13.5144465,5.9249262 13.4400185,5.75736162 13.3194649,5.63549815 L13.3195572,5.63553506 Z" id="Path"></path>
                </g>
            </g>
        </g>
    </g>
</svg>