<?xml version="1.0" encoding="UTF-8"?>
<svg width="11px" height="10px" viewBox="0 0 11 10" version="1.1" xmlns="http://www.w3.org/2000/svg" xmlns:xlink="http://www.w3.org/1999/xlink">
    <!-- Generator: Sketch 52.5 (67469) - http://www.bohemiancoding.com/sketch -->
    <title>Shape</title>
    <desc>Created with Sketch.</desc>
    <g id="Page-1" stroke="none" stroke-width="1" fill="none" fill-rule="evenodd" opacity="0.600000024">
        <g id="弹窗" transform="translate(-325.000000, -108.000000)" fill="#46EBE3" fill-rule="nonzero">
            <g id="Group-3" transform="translate(32.000000, 92.000000)">
                <g id="resize2" transform="translate(289.379446, 12.000000)">
                    <path d="M6.80987948,10.7186636 L4.93487948,10.7186636 C4.675996,10.7186636 4.46612948,10.9285301 4.46612948,11.1874136 C4.46612948,11.4462971 4.675996,11.6561636 4.93487948,11.6561636 L5.67816073,11.6561636 L4.13456698,13.1997573 C3.95407156,13.3832597 3.95530622,13.677976 4.13733279,13.8599597 C4.31935935,14.0419433 4.61407589,14.0431085 4.79753573,13.8625698 L6.34112948,12.3191323 L6.34112948,13.0624136 C6.34112948,13.3212971 6.550996,13.5311636 6.80987948,13.5311636 C7.06876296,13.5311636 7.27862948,13.3212971 7.27862948,13.0624136 L7.27862948,11.1874136 C7.27862948,10.9285301 7.06876296,10.7186636 6.80987948,10.7186636 Z M8.99737948,7.5936636 C8.22072905,7.5936636 7.59112948,8.22326317 7.59112948,8.9999136 C7.59112948,9.77656403 8.22072905,10.4061636 8.99737948,10.4061636 C9.77402991,10.4061636 10.4036295,9.77656403 10.4036295,8.9999136 C10.4036295,8.22326317 9.77402991,7.5936636 8.99737948,7.5936636 Z M13.9973795,4.4686636 C13.997339,4.27910302 13.8831322,4.10822576 13.7079988,4.03568954 C13.5328654,3.96315333 13.331283,4.00323801 13.1972232,4.13725735 L11.6536295,5.68069485 L11.6536295,4.9374136 C11.6536295,4.67853012 11.443763,4.4686636 11.1848795,4.4686636 C10.925996,4.4686636 10.7161295,4.67853012 10.7161295,4.9374136 L10.7161295,6.8124136 C10.7161295,7.07129707 10.925996,7.2811636 11.1848795,7.2811636 L13.0598795,7.2811636 C13.318763,7.2811636 13.5286295,7.07129707 13.5286295,6.8124136 C13.5286295,6.55353012 13.318763,6.3436636 13.0598795,6.3436636 L12.3165982,6.3436636 L13.860192,4.80006985 C13.9481652,4.71223503 13.9975321,4.59297856 13.9973795,4.4686636 Z" id="Shape"></path>
                </g>
            </g>
        </g>
    </g>
</svg>