<?xml version="1.0" encoding="UTF-8"?>
<svg width="11px" height="10px" viewBox="0 0 11 10" version="1.1" xmlns="http://www.w3.org/2000/svg" xmlns:xlink="http://www.w3.org/1999/xlink">
    <!-- Generator: Sketch 52.5 (67469) - http://www.bohemiancoding.com/sketch -->
    <title>Shape</title>
    <desc>Created with Sketch.</desc>
    <g id="Page-1" stroke="none" stroke-width="1" fill="none" fill-rule="evenodd" opacity="0.600000024">
        <g id="弹窗" transform="translate(-301.000000, -108.000000)" fill="#46EBE3" fill-rule="nonzero">
            <g id="Group-3" transform="translate(32.000000, 92.000000)">
                <g id="resize" transform="translate(265.379446, 12.000000)">
                    <path d="M6.8125,10.71875 C6.68815569,10.7186043 6.5688833,10.768034 6.48109375,10.8560937 L4.9375,12.3995312 L4.9375,11.65625 C4.9375,11.3973665 4.72763348,11.1875 4.46875,11.1875 C4.20986652,11.1875 4,11.3973665 4,11.65625 L4,13.53125 C4,13.7901335 4.20986652,14 4.46875,14 L6.34375,14 C6.60263348,14 6.8125,13.7901335 6.8125,13.53125 C6.8125,13.2723665 6.60263348,13.0625 6.34375,13.0625 L5.60046875,13.0625 L7.1440625,11.5189063 C7.27810194,11.3848263 7.31817668,11.1832061 7.24560039,11.0080585 C7.1730241,10.8329109 7.00208901,10.7187273 6.8125,10.71875 Z M13.53125,4 L11.65625,4 C11.3973665,4 11.1875,4.20986652 11.1875,4.46875 C11.1875,4.72763348 11.3973665,4.9375 11.65625,4.9375 L12.3995312,4.9375 L10.8559375,6.48109375 C10.6754421,6.66459614 10.6766767,6.95931239 10.8587033,7.14129606 C11.0407299,7.32327972 11.3354464,7.32444492 11.5189062,7.14390625 L13.0625,5.60046875 L13.0625,6.34375 C13.0625,6.60263348 13.2723665,6.8125 13.53125,6.8125 C13.7901335,6.8125 14,6.60263348 14,6.34375 L14,4.46875 C14,4.20986652 13.7901335,4 13.53125,4 Z M9,7.59375 C8.22334957,7.59375 7.59375,8.22334957 7.59375,9 C7.59375,9.77665043 8.22334957,10.40625 9,10.40625 C9.77665043,10.40625 10.40625,9.77665043 10.40625,9 C10.40625,8.22334957 9.77665043,7.59375 9,7.59375 Z" id="Shape"></path>
                </g>
            </g>
        </g>
    </g>
</svg>